<?xml version="1.0" encoding="utf-8"?>
<!-- Generator: Adobe Illustrator 21.1.0, SVG Export Plug-In . SVG Version: 6.00 Build 0)  -->
<svg version="1.1" id="Слой_1" xmlns="http://www.w3.org/2000/svg" xmlns:xlink="http://www.w3.org/1999/xlink" x="0px" y="0px"
	 viewBox="0 0 34.5 44.188" style="enable-background:new 0 0 34.5 44.188;" xml:space="preserve">
<style type="text/css">
	.st0{fill:none;stroke:#000000;stroke-miterlimit:10;}
</style>
<path class="st0" d="M11.063,19.313c-6.042-20.333,21.875-37.75,13.208,23.5"/>
<path class="st0" d="M33.846,21.396c0,0.828-0.136-2.449-3.743-4.75c-2.954-1.884-4.148-1.723-4.148-2.551
	c0-0.828,1.983-1.574,4.691-0.116C33.158,15.332,33.846,20.567,33.846,21.396z"/>
<path class="st0" d="M19.179,13.629c-0.175,0.419,0.587-1.211,2.9-1.613c1.894-0.329,2.465,0.005,2.64-0.414
	s-0.671-1.216-2.351-1.051C20.81,10.704,19.354,13.209,19.179,13.629z"/>
<path class="st0" d="M15.229,22.229c0,1.565-1.138,1.125-2.875,1.125s-3.417,0.44-3.417-1.125c0-1.565,1.408-2.833,3.146-2.833
	S15.229,20.664,15.229,22.229z"/>
<ellipse transform="matrix(0.4149 -0.9099 0.9099 0.4149 -19.0814 22.3707)" class="st0" cx="7.853" cy="26.021" rx="2.87" ry="1.271"/>
<ellipse class="st0" cx="11.311" cy="26.542" rx="1.271" ry="2.87"/>
<ellipse transform="matrix(0.6601 -0.7512 0.7512 0.6601 -12.2149 21.4954)" class="st0" cx="17.644" cy="24.245" rx="1.271" ry="2.87"/>
<ellipse transform="matrix(0.9122 -0.4096 0.4096 0.9122 -9.4163 8.3163)" class="st0" cx="14.702" cy="26.136" rx="1.271" ry="2.87"/>
<path class="st0" d="M15.403,34.073c-0.658,1.442-2.164,1.489-2.802,1.198c-0.639-0.291-0.676-0.891-0.019-2.334
	s2.855-2.003,2.855-2.003S16.06,32.631,15.403,34.073z"/>
<ellipse transform="matrix(0.0631 -0.998 0.998 0.0631 -38.4388 42.4268)" class="st0" cx="3.378" cy="41.686" rx="1.122" ry="2.87"/>
<path class="st0" d="M11.708,42.083c0.664,1.439-1.206,1.567-1.896,1.438c-0.69-0.129-2.755-0.516-1.875-1.834
	c0.625-0.936,1.883-1.707,1.883-1.707S11.083,40.729,11.708,42.083z"/>
</svg>
