<?xml version="1.0" encoding="utf-8"?>
<!-- Generator: Adobe Illustrator 21.1.0, SVG Export Plug-In . SVG Version: 6.00 Build 0)  -->
<svg version="1.1" id="Слой_1" xmlns="http://www.w3.org/2000/svg" xmlns:xlink="http://www.w3.org/1999/xlink" x="0px" y="0px"
	 viewBox="0 0 229 185.424" style="enable-background:new 0 0 229 185.424;" xml:space="preserve">
<style type="text/css">
	.st0{fill:none;stroke:#000000;stroke-width:5;stroke-miterlimit:10;}
</style>
<path d="M125.829,145.722c-1.475-0.068-2.946-0.126-4.417-0.204c-5.079-0.272-9.455-1.872-13.25-5.564
	c-4.562-4.438-5.536-9.938-4.588-15.528c1.607-9.481-1.663-15.269-10.939-17.83c-1.511-0.417-3.161-1.374-4.107-2.583
	c-2.175-2.779-2.548-5.623-0.315-8.983c5.249-7.9,11.469-15.557,14.723-24.274c3.719-9.961,7.599-19.447,14.877-27.612
	c-3.887-7.255-3.738-8.608,2.239-13.883c2.698-2.382,5.736-4.386,8.67-6.492c0,0,8.582-5.72,11.568-6.827
	c37.95-14.069,75.481,5.991,84.926,45.201c0.202,0.84,0.846,1.573,1.284,2.356c0,6.667,0,13.333,0,20
	c-0.317,0.385-0.849,0.735-0.919,1.161c-2.676,16.219-11.736,29.122-21.538,41.652c-1.435,1.834-2.719,3.784-4.089,5.669
	c-5.248,7.224-8.23,15.055-7.444,24.223c0.44,5.128-0.048,10.329,0.129,15.488c0.093,2.701-0.76,4.235-3.346,5.305
	c-19.26,7.964-39.128,10.266-59.705,6.971c-3.281-0.525-4.395-1.876-4.255-5.211c0.265-6.299,0.076-12.617,0.076-19.295
	 M130.752,178.15c12.475,3.276,32.367,2.046,47.426-2.718c9.077-2.871,9.077-2.871,9.077-12.561c0-1.665-0.252-3.376,0.041-4.988
	c2.011-11.094-1.845-19.343-11.86-24.53c-7.063-3.659-4.609-10.151-5.033-15.832c-0.35-4.695,4.27-3.821,6.344-5.79
	c2.857-2.711,6.252-5.075,8.389-8.275c3.575-5.354,2.524-13.733-1.508-18.738c-4.131-5.128-11.363-7.761-17.484-5.186
	c-3.987,1.677-7.589,4.693-10.763,7.736c-2.35,2.253-4.267,3.364-7.661,1.662c0-10.767,0-21.536,0-31.115
	c-9.23-3.49-17.672-6.682-27.503-10.4c-2.891,5.174-7.634,10.972-9.447,17.575c-2.379,8.667-6.981,15.64-11.979,22.655
	c-2.027,2.844-3.88,5.818-5.996,8.592c-2.402,3.147-1.46,5.072,1.872,6.524c3.349,1.46,6.576,3.217,9.977,4.532
	c2.688,1.039,3.819,2.521,3.665,5.526c-0.264,5.148-0.13,10.32-0.057,15.48c0.112,7.918,4.503,12.283,12.435,12.421
	c3.239,0.056,6.479,0.009,10.064,0.009C130.752,153.708,130.752,165.832,130.752,178.15z M189.791,139.489
	c5.981-8.242,11.462-16.077,17.235-23.691c12.17-16.051,17.499-34.002,14.062-53.898c-2.341-13.548-9.404-24.792-20.291-33.399
	c-13.777-10.891-29.271-14.211-46.649-11.741c-12.683,1.803-22.967,7.614-32.526,15.462c-2.199,1.805-4.253,3.971-1.585,6.551
	c3.142,3.039,6.423,6.51,10.331,8.055c6.895,2.726,14.312,4.134,22.422,6.343c0,8.853,0,18.87,0,29.9
	c1.588-1.317,2.257-1.872,2.926-2.426c9.058-7.505,16.75-9.378,28.233-1.709c4.423,2.954,9.262,15.46,7.91,19.425
	c-2.546,7.465-6.325,13.921-13.974,17.335c-2.94,1.312-4.305,10.58-1.871,12.632C180.494,132.105,185.112,135.715,189.791,139.489z"
	/>
<path d="M39.305,46.036c5.72,6.444,9.126,14.016,11.379,22.37c1.233,4.571,3.93,8.862,6.533,12.917
	c2.762,4.302,6.343,8.07,9.296,12.262c3.55,5.038,2.259,9.77-3.149,12.643c-0.289,0.154-0.585,0.336-0.899,0.397
	c-10.322,2.026-12.043,8.94-11.965,18.209c0.037,4.378-0.192,7.309-1.092,10.93c-0.166,0.669-1.806,1.464-2.609,1.322
	c-0.619-0.11-1.446-1.618-1.407-2.47c0.336-7.419,0.966-14.825,1.236-22.246c0.089-2.433,0.551-3.936,3.07-4.84
	c3.268-1.173,6.367-2.825,9.518-4.314c5.041-2.381,5.314-3.313,2.274-7.764c-1.875-2.745-3.763-5.483-5.708-8.178
	c-4.951-6.859-9.49-13.727-11.685-22.255c-1.392-5.405-5.663-10.013-8.339-15.145C32,42.667,38.079,44.653,39.305,46.036z"/>
<circle cx="32.434" cy="83.339" r="5.601"/>
<circle cx="124.375" cy="83.339" r="5.601"/>
<path class="st0" d="M122.197,172.666c-9.563,3.597-19.923,5.565-30.744,5.565c-48.233,0-87.333-39.1-87.333-87.333
	S43.22,3.565,91.453,3.565c15.123,0,29.348,3.844,41.751,10.608"/>
</svg>
