<?xml version="1.0" encoding="utf-8"?>
<!-- Generator: Adobe Illustrator 21.1.0, SVG Export Plug-In . SVG Version: 6.00 Build 0)  -->
<svg version="1.1" id="Capa_1" xmlns="http://www.w3.org/2000/svg" xmlns:xlink="http://www.w3.org/1999/xlink" x="0px" y="0px"
	 viewBox="0 0 185.024 211.076" style="enable-background:new 0 0 185.024 211.076;" xml:space="preserve">
<path d="M90.494,211.076c-37.51,0-68.027-30.517-68.027-68.027v-0.988h-1.488C9.411,142.061,0,132.65,0,121.082v-9.606
	c0-11.568,9.411-20.979,20.979-20.979h1.488V59.579c0-11.853,5.486-23.12,14.753-30.465c-0.333-1.606-0.506-3.262-0.506-4.943
	c0-4.319,2.3-8.756,6.153-11.868c0.039-0.031,0.078-0.061,0.118-0.09l2.334-1.666c0.083-0.059,0.169-0.113,0.258-0.162
	c0.364-0.198,0.775-0.446,1.247-0.729c2.198-1.319,5.521-3.312,11.013-4.988c7.612-2.492,15.597-3.943,24.418-4.438
	c33.897-1.897,64.06,8.079,73.374,24.27c0.004,0.007,0.008,0.014,0.012,0.021c1.161,1.869,1.978,3.361,2.774,5.073
	c7.618,16.386,1.422,33.585,0.106,36.861v24.042h1.624c11.568,0,20.979,9.411,20.979,20.979v9.606
	c0,11.568-9.411,20.979-20.979,20.979h-1.624v0.988C158.522,180.559,128.004,211.076,90.494,211.076z M27.466,139.561v3.488
	c0,34.753,28.274,63.027,63.027,63.027c34.754,0,63.028-28.274,63.028-63.027v-21.191h-4.429c-0.668,0-1.308-0.267-1.778-0.742
	s-0.729-1.118-0.722-1.786c0.003-0.29,0.303-29.082-1.925-37.997c-2.014-8.055-7.763-11.271-8.006-11.405
	c-0.596-0.325-1.041-0.882-1.22-1.536c-0.18-0.655-0.092-1.358,0.254-1.941c0.033-0.055,3.431-5.876,3.581-11.458
	c0.023-0.87-3.563-2.989-8.306-4.339c-5.414-1.158-9.578-1.102-9.681-1.095c-0.019,0-0.042,0-0.061,0h-52
	c-7.521,0-14.019-1.292-19.313-3.842c-0.886-0.426-1.738-0.908-2.554-1.439c-2.335,2.7-5.657,7.304-5.648,10.775
	c0.014,5.526,3.523,11.304,3.559,11.361c0.361,0.588,0.464,1.302,0.283,1.968s-0.63,1.229-1.24,1.552
	c-0.231,0.126-5.98,3.343-7.994,11.398c-2.229,8.917-1.929,37.707-1.925,37.997c0.007,0.668-0.252,1.311-0.722,1.786
	s-1.11,0.742-1.778,0.742h-4.429L27.466,139.561L27.466,139.561z M158.658,137.061h1.488c8.811,0,15.979-7.168,15.979-15.979v-9.606
	c0-8.811-7.168-15.979-15.979-15.979h-1.488V137.061z M20.979,95.496C12.168,95.496,5,102.664,5,111.475v9.606
	c0,8.811,7.168,15.979,15.979,15.979h1.488V95.496H20.979z M151.608,116.858h1.913V66.592c-2.173-4.74-5.537-8.161-9.288-10.63
	c-0.302,4.367-1.991,8.548-3.146,10.954c2.525,1.973,6.663,6.138,8.43,13.204C151.517,88.117,151.631,109.459,151.608,116.858z
	 M27.466,116.858h1.913c-0.023-7.398,0.092-28.741,2.091-36.738c1.761-7.043,5.876-11.204,8.404-13.184
	c-1.272-2.577-3.15-7.171-3.162-11.87c-0.013-5.307,4.219-11.005,6.778-13.963c-1.924-1.964-3.5-4.273-4.648-6.826
	C31.667,40.668,27.466,49.9,27.466,59.579V116.858z M121.674,44.476c3.392,0,23.563,0.639,33.743,15.312
	c0.355-1.348,0.71-2.915,1.002-4.646c-2.933-2.857-13.529-12.211-29.297-15.209c-11.023-2.096-24.041-1.284-36.633-0.499
	c-9.36,0.584-19.04,1.189-27.616,0.536c-8.314-0.631-14.077-2.801-18.019-5.227c1.808,2.758,4.323,5.017,7.344,6.452
	c4.591,2.182,10.317,3.288,17.021,3.288h52C121.282,44.48,121.438,44.476,121.674,44.476z M110.38,33.599
	c6.125,0,12.095,0.361,17.675,1.422c13.856,2.634,23.881,9.605,29.015,13.95c0.089-2.202,0.025-4.528-0.271-6.915
	c-6.97-6.976-19.331-11.841-35.824-14.089c-8.736-1.19-18.694,0.165-29.239,1.599c-10.625,1.445-21.613,2.942-31.5,1.64
	c-10.966-1.443-15.992-5.392-18.282-8.933c-0.158,0.638-0.241,1.275-0.241,1.899c0,0.235,0.004,0.47,0.013,0.703
	c0.811,1.571,5.428,8.887,21.526,10.11c8.232,0.625,17.312,0.059,26.926-0.541C96.893,34.024,103.729,33.599,110.38,33.599z
	 M113.744,22.519c2.712,0,5.358,0.146,7.906,0.493c13.972,1.904,25.27,5.678,33.214,11.041c-0.293-0.786-0.62-1.57-0.983-2.351
	c-0.707-1.52-1.441-2.86-2.537-4.627c-0.019-0.031-0.039-0.064-0.058-0.098C142.999,12.6,114.091,3.449,82.536,5.223
	c-8.399,0.471-15.98,1.848-23.177,4.209c-0.024,0.008-0.05,0.016-0.075,0.023c-4.898,1.496-7.9,3.297-9.888,4.489
	c-0.481,0.289-0.909,0.544-1.291,0.757l-2.152,1.536c-0.292,0.239-0.573,0.489-0.84,0.75c0.314,1.97,2.399,7.501,15.775,9.261
	c9.223,1.213,19.873-0.236,30.173-1.637C98.654,23.578,106.437,22.519,113.744,22.519z M102.01,162.655
	c-0.64,0-1.28-0.244-1.768-0.732c-5.111-5.11-13.428-5.11-18.539,0c-0.976,0.977-2.56,0.977-3.535,0
	c-0.977-0.976-0.977-2.559,0-3.535c7.061-7.061,18.549-7.061,25.609,0c0.977,0.976,0.977,2.559,0,3.535
	C103.29,162.411,102.65,162.655,102.01,162.655z M127.493,148.328c-1.381,0-2.5-1.119-2.5-2.5v-27.485
	c-2.355,0.845-5.16,1.436-8.4,1.436c-11.11,0-17.178-6.947-17.43-7.243c-0.897-1.049-0.774-2.627,0.275-3.524
	c1.048-0.897,2.627-0.774,3.524,0.275c0.188,0.214,4.902,5.492,13.63,5.492c4.035,0,7.198-1.128,9.451-2.363
	c0.141-0.1,0.292-0.187,0.453-0.256c2.322-1.358,3.556-2.758,3.654-2.872c0.898-1.04,2.473-1.165,3.52-0.273
	c1.046,0.893,1.179,2.458,0.292,3.508c-0.116,0.137-1.459,1.697-3.969,3.335v29.969
	C129.993,147.209,128.874,148.328,127.493,148.328z M64.272,119.779c-11.272,0-16.311-7.147-16.52-7.452
	c-0.782-1.138-0.493-2.695,0.645-3.476c1.14-0.783,2.695-0.493,3.476,0.645c0.143,0.2,3.86,5.283,12.398,5.283
	c8.871,0,14.722-5.596,14.78-5.652c0.988-0.961,2.568-0.945,3.532,0.038c0.964,0.983,0.955,2.558-0.025,3.525
	C82.266,112.979,75.257,119.779,64.272,119.779z M116.48,98.477c-0.242,0-0.487-0.035-0.73-0.109l-15.416-4.703
	c-1.321-0.403-2.064-1.8-1.662-3.121c0.403-1.32,1.801-2.063,3.121-1.662l15.416,4.703c1.321,0.403,2.064,1.8,1.662,3.121
	C118.541,97.784,117.55,98.477,116.48,98.477z M65.306,98.477c-1.071,0-2.062-0.693-2.39-1.771
	c-0.403-1.321,0.341-2.718,1.662-3.121l15.417-4.703c1.319-0.404,2.718,0.341,3.121,1.662s-0.341,2.718-1.662,3.121l-15.417,4.703
	C65.793,98.442,65.548,98.477,65.306,98.477z"/>
</svg>
