<?xml version="1.0" encoding="utf-8"?>
<!-- Generator: Adobe Illustrator 21.1.0, SVG Export Plug-In . SVG Version: 6.00 Build 0)  -->
<svg version="1.1" id="Capa_1" xmlns="http://www.w3.org/2000/svg" xmlns:xlink="http://www.w3.org/1999/xlink" x="0px" y="0px"
	 viewBox="0 0 363.378 363.378" style="enable-background:new 0 0 363.378 363.378; fill: #fff" xml:space="preserve">
<g>
	<path d="M92.069,75.399h0.003c9.18-0.003,16.646-7.473,16.644-16.651c-0.001-8.257-11.549-19.89-13.864-22.138
		c-1.552-1.509-4.022-1.508-5.574,0.001c-2.314,2.249-13.857,13.886-13.856,22.144C75.423,67.932,82.892,75.399,92.069,75.399z
		 M92.06,45.235c4.233,4.657,8.656,10.696,8.656,13.515c0.001,4.768-3.878,8.648-8.647,8.649c-4.767,0-8.646-3.879-8.647-8.646
		C83.421,56.044,87.52,50.203,92.06,45.235z"/>
	<path d="M315.207,39.92c0,0,0.002,0,0.003,0c4.446-0.001,8.627-1.733,11.771-4.878s4.875-7.325,4.874-11.772
		c-0.001-8.258-11.549-19.891-13.863-22.139c-1.553-1.508-4.022-1.509-5.575,0.001c-2.313,2.249-13.857,13.887-13.856,22.144
		C298.561,32.453,306.029,39.92,315.207,39.92z M315.199,9.757c4.232,4.656,8.655,10.695,8.655,13.515
		c0,2.31-0.898,4.481-2.532,6.114c-1.633,1.634-3.805,2.534-6.115,2.534c-4.768,0-8.646-3.879-8.647-8.646
		C306.56,20.566,310.658,14.725,315.199,9.757z"/>
	<path d="M224.299,128.351c0,0,0.004,0,0.005,0c4.446-0.001,8.627-1.732,11.771-4.878c3.144-3.145,4.875-7.325,4.874-11.772
		c-0.002-8.257-11.55-19.89-13.864-22.138c-1.553-1.508-4.022-1.509-5.575,0.001c-2.313,2.249-13.857,13.886-13.855,22.144
		C207.654,120.884,215.122,128.351,224.299,128.351z M224.292,98.188c4.232,4.657,8.655,10.696,8.656,13.515
		c0.001,4.768-3.878,8.647-8.646,8.648h-0.003c-4.767,0-8.645-3.878-8.646-8.646C215.652,108.996,219.751,103.156,224.292,98.188z"
		/>
	<path d="M50.837,113.163c12.5-3.67,26.758-5.61,41.232-5.61c15.368,0,30.385,2.171,43.427,6.278c0.4,0.126,0.805,0.186,1.203,0.186
		c1.7,0,3.277-1.092,3.814-2.8c0.664-2.106-0.507-4.353-2.614-5.017c-13.81-4.349-29.658-6.647-45.831-6.647
		c-15.228,0-30.265,2.052-43.486,5.935c-2.12,0.622-3.333,2.845-2.711,4.965C46.494,112.573,48.721,113.783,50.837,113.163z"/>
	<path d="M33.534,119.919c1.969-1.001,2.754-3.409,1.752-5.378c-1.002-1.97-3.41-2.757-5.378-1.753
		c-18.238,9.273-28.282,21.999-28.282,35.834c0,2.209,1.791,4,4,4s4-1.791,4-4C9.626,137.952,18.117,127.758,33.534,119.919z"/>
	<path d="M22.148,170.117c-1.736-1.385-3.326-2.835-4.725-4.312c-1.52-1.604-4.052-1.672-5.655-0.151
		c-1.604,1.52-1.671,4.052-0.152,5.655c1.653,1.744,3.518,3.447,5.543,5.062c0.737,0.588,1.617,0.873,2.492,0.873
		c1.175,0,2.34-0.516,3.13-1.506C24.159,174.011,23.875,171.494,22.148,170.117z"/>
	<path d="M182.512,148.622c0-9.688-5.022-18.998-14.523-26.925c-1.695-1.414-4.219-1.188-5.634,0.509
		c-1.416,1.696-1.188,4.219,0.509,5.634c5.314,4.434,11.648,11.638,11.648,20.782c0,22.263-37.754,41.07-82.443,41.07
		c-21.112,0-41.247-4.07-56.696-11.46c-1.995-0.954-4.381-0.111-5.334,1.883c-0.953,1.992-0.11,4.381,1.882,5.334
		c16.505,7.896,37.866,12.243,60.148,12.243C142.785,197.693,182.512,176.138,182.512,148.622z"/>
	<path d="M69.034,119.859c-2.147,0.52-3.467,2.681-2.947,4.828s2.684,3.468,4.828,2.947c7.476-1.809,15.816-2.63,24.125-2.374
		c18.221,0.56,34.685,6.338,41.945,14.721c2.756,3.183,3.963,6.481,3.588,9.806c-0.537,4.745-4.194,8.52-7.167,10.85
		c-1.739,1.362-2.044,3.877-0.681,5.615c0.789,1.007,1.964,1.533,3.151,1.533c0.863,0,1.732-0.278,2.464-0.852
		c5.99-4.694,9.511-10.313,10.182-16.248c0.628-5.557-1.27-11.069-5.49-15.941c-8.788-10.146-27.083-16.845-47.746-17.479
		C86.276,116.987,77.195,117.884,69.034,119.859z"/>
	<path d="M41.106,162.502c8.788,10.146,27.083,16.845,47.746,17.479c1.076,0.033,2.149,0.05,3.223,0.05
		c8.688,0,17.273-1.077,25.009-3.149c2.134-0.572,3.4-2.766,2.829-4.899s-2.762-3.406-4.899-2.828
		c-7.949,2.128-16.915,3.105-25.916,2.831c-18.221-0.56-34.685-6.338-41.945-14.721c-2.756-3.183-3.963-6.482-3.588-9.806
		c0.665-5.873,5.941-10.312,10.251-13.001c1.874-1.17,2.445-3.637,1.276-5.511c-1.169-1.875-3.637-2.445-5.511-1.276
		c-8.326,5.195-13.155,11.728-13.965,18.89C34.988,152.117,36.886,157.629,41.106,162.502z"/>
	<path d="M86.975,143.39c2.177-0.373,3.64-2.441,3.266-4.619c-0.374-2.178-2.448-3.638-4.619-3.266
		c-7.604,1.305-13.151,4.677-15.221,9.253c-1.263,2.792-1.12,5.821,0.402,8.53c2.521,4.486,8.699,7.739,16.527,8.701
		c1.505,0.186,3.063,0.279,4.642,0.279c9.074-0.001,18.742-3.1,21.764-9.782c1.094-2.417,1.143-4.979,0.143-7.408
		c-1.381-3.354-4.738-6.19-9.453-7.989c-2.064-0.785-4.375,0.248-5.163,2.312s0.248,4.376,2.312,5.163
		c3.009,1.148,4.508,2.593,4.907,3.561c0.155,0.378,0.146,0.666-0.035,1.065c-1.238,2.739-8.92,5.994-18.14,4.86
		c-5.831-0.717-9.545-2.929-10.529-4.681c-0.316-0.563-0.271-0.908-0.087-1.314C78.416,146.45,81.631,144.307,86.975,143.39z"/>
	<path d="M178.477,213.38c-7.269,1.122-14.428,2.568-21.28,4.296c-2.142,0.541-3.44,2.715-2.9,4.857
		c0.457,1.813,2.086,3.022,3.875,3.022c0.324,0,0.653-0.04,0.981-0.122c6.609-1.668,13.521-3.063,20.543-4.147
		c2.184-0.337,3.68-2.38,3.343-4.563C182.703,214.539,180.658,213.035,178.477,213.38z"/>
	<path d="M83.992,292.073c-0.262-1.721-0.395-3.473-0.395-5.208c0-22.646,22.37-43.87,59.84-56.771
		c2.089-0.72,3.199-2.996,2.48-5.084c-0.719-2.09-2.997-3.201-5.084-2.48c-40.849,14.065-65.236,38.116-65.236,64.336
		c0,2.137,0.164,4.294,0.485,6.411c0.301,1.98,2.006,3.399,3.95,3.399c0.2,0,0.403-0.016,0.606-0.047
		C82.823,296.297,84.324,294.257,83.992,292.073z"/>
	<path d="M153.258,346.716c-29.196-8.305-51.319-21.698-62.292-37.713c-1.25-1.823-3.739-2.288-5.561-1.039
		c-1.823,1.249-2.288,3.738-1.039,5.561c12.026,17.552,35.715,32.072,66.703,40.887c0.366,0.104,0.734,0.153,1.096,0.153
		c1.742,0,3.345-1.147,3.845-2.906C156.616,349.533,155.383,347.321,153.258,346.716z"/>
	<path d="M218.675,355.378c-7.489,0-15.004-0.317-22.334-0.944c-2.206-0.184-4.138,1.444-4.326,3.645s1.443,4.138,3.645,4.326
		c7.556,0.646,15.3,0.974,23.016,0.974c2.209,0,4-1.791,4-4S220.884,355.378,218.675,355.378z"/>
	<path d="M358.651,270.79c-0.808-2.058-3.132-3.071-5.185-2.263c-2.057,0.807-3.069,3.128-2.263,5.185
		c1.691,4.31,2.549,8.735,2.549,13.153c0,14.341-8.878,28.149-25.673,39.934c-16.832,11.809-40.936,20.771-67.873,25.236
		c-2.18,0.361-3.653,2.421-3.292,4.601c0.324,1.958,2.02,3.347,3.941,3.347c0.217,0,0.438-0.019,0.659-0.055
		c59.955-9.938,100.237-39.3,100.237-73.063C361.752,281.443,360.708,276.034,358.651,270.79z"/>
	<path d="M205.317,218.689c4.406-0.223,8.9-0.336,13.358-0.336c52.748,0,101.076,15.92,123.122,40.557
		c0.79,0.884,1.884,1.333,2.981,1.333c0.95,0,1.903-0.336,2.666-1.02c1.646-1.473,1.787-4.002,0.313-5.647
		c-23.494-26.257-74.163-43.223-129.083-43.223c-4.592,0-9.223,0.116-13.763,0.346c-2.206,0.111-3.904,1.991-3.793,4.197
		C201.232,217.102,203.062,218.78,205.317,218.689z"/>
	<path d="M243.714,236.182c-6.309-0.896-12.853-1.453-19.45-1.656c-20.844-0.638-41.036,2.217-58.407,8.26
		c-2.086,0.727-3.189,3.006-2.463,5.093c0.575,1.651,2.123,2.687,3.778,2.687c0.436,0,0.879-0.071,1.314-0.223
		c16.458-5.727,35.654-8.436,55.532-7.82c6.305,0.194,12.553,0.727,18.571,1.58c2.206,0.319,4.213-1.211,4.522-3.397
		C247.422,238.517,245.901,236.492,243.714,236.182z"/>
	<path d="M127.469,276.979c0.612,0.336,1.272,0.496,1.924,0.496c1.411,0,2.78-0.749,3.508-2.073
		c1.635-2.973,3.916-5.881,6.778-8.645c1.589-1.534,1.634-4.066,0.1-5.656c-1.535-1.589-4.067-1.633-5.656-0.1
		c-3.44,3.321-6.209,6.869-8.231,10.545C124.827,273.482,125.533,275.914,127.469,276.979z"/>
	<path d="M121.889,289.291c2.182,26.925,41.388,48.383,91.197,49.914c1.937,0.06,3.86,0.089,5.776,0.089
		c41.104,0,77.228-13.549,91.007-34.478c1.215-1.845,0.704-4.325-1.142-5.54c-1.846-1.216-4.325-0.704-5.54,1.142
		c-12.749,19.363-49.7,32.034-89.855,30.791c-44.983-1.383-81.647-20.079-83.469-42.564c-0.178-2.202-2.114-3.849-4.31-3.664
		C123.351,285.159,121.711,287.089,121.889,289.291z"/>
	<path d="M311.399,293.715c2.008,0,3.739-1.508,3.97-3.551c1.921-16.998-10.593-32.887-34.332-43.594
		c-2.016-0.907-4.382-0.011-5.291,2.002c-0.908,2.014-0.012,4.383,2.002,5.291c20.361,9.183,31.177,22.087,29.672,35.402
		c-0.248,2.195,1.33,4.176,3.525,4.424C311.097,293.707,311.248,293.715,311.399,293.715z"/>
	<path d="M245.826,266.324c0.62-2.12-0.596-4.342-2.717-4.961c-4.067-1.189-8.446-2.077-13.015-2.639
		c-13.358-1.645-27.085-0.391-38.653,3.527c-2.093,0.709-3.214,2.979-2.506,5.072c0.565,1.667,2.121,2.718,3.789,2.718
		c0.425,0,0.857-0.068,1.283-0.212c10.301-3.489,23.098-4.641,35.11-3.166c4.141,0.51,8.093,1.309,11.747,2.377
		C242.981,269.665,245.207,268.447,245.826,266.324z"/>
	<path d="M179.242,278.227c1.559-1.566,1.553-4.099-0.013-5.657c-1.565-1.56-4.099-1.553-5.657,0.013
		c-2.146,2.156-3.794,4.489-4.9,6.935c-2.233,4.938-2.185,10.132,0.14,15.021c0.685,1.44,2.12,2.283,3.616,2.283
		c0.575,0,1.16-0.125,1.714-0.389c1.995-0.948,2.844-3.334,1.896-5.33c-1.319-2.774-1.344-5.485-0.076-8.289
		C176.671,281.244,177.775,279.7,179.242,278.227z"/>
	<path d="M208.232,307.067c-8.058-0.991-15.372-3.088-21.154-6.063c-1.966-1.013-4.376-0.238-5.387,1.727
		c-1.011,1.964-0.238,4.376,1.727,5.387c6.611,3.402,14.854,5.784,23.838,6.889c3.892,0.479,7.767,0.709,11.577,0.708
		c23.251,0,43.995-8.564,49.847-21.501c3.67-8.113,1.149-16.667-6.915-23.467c-1.687-1.423-4.212-1.21-5.636,0.479
		c-1.425,1.688-1.21,4.212,0.479,5.636c3.678,3.103,7.494,8.059,4.782,14.055C256.695,301.294,234.216,310.254,208.232,307.067z"/>
	<path d="M218.675,282.316c8.054,0,12.398,3.229,12.398,4.55c0,2.209,1.791,4,4,4s4-1.791,4-4c0-7.154-8.77-12.55-20.398-12.55
		s-20.397,5.396-20.397,12.55s8.769,12.55,20.397,12.55c2.209,0,4-1.791,4-4s-1.791-4-4-4c-8.053,0-12.397-3.229-12.397-4.55
		S210.622,282.316,218.675,282.316z"/>
</g>
</svg>
