<?xml version="1.0" encoding="utf-8"?>
<!-- Generator: Adobe Illustrator 21.1.0, SVG Export Plug-In . SVG Version: 6.00 Build 0)  -->
<svg version="1.1" id="Capa_1" xmlns="http://www.w3.org/2000/svg" xmlns:xlink="http://www.w3.org/1999/xlink" x="0px" y="0px"
	 viewBox="0 0 471.922 512" style="enable-background:new 0 0 471.922 512;" xml:space="preserve">
	<g>
		<g>
			<path d="M408.68,63.242C367.897,22.46,313.674,0,256.001,0s-111.898,22.46-152.68,63.242
				c-40.361,40.362-62.776,93.883-63.234,150.892L0.795,292.718c-1.756,3.512-0.513,7.784,2.856,9.804L40.08,324.38v115.98
				c0,4.15,3.364,7.515,7.515,7.515h72.642v56.611c0,4.15,3.364,7.515,7.515,7.515c4.151,0,7.515-3.365,7.515-7.515V440.36
				c0-4.15-3.364-7.515-7.515-7.515H55.108v-112.72c0-2.639-1.385-5.086-3.649-6.444l-34.111-20.467l36.966-73.932
				c0.522-1.044,0.794-2.193,0.794-3.361c0-110.772,90.12-200.892,200.892-200.892s200.892,90.12,200.892,200.892
				c0,62.247-28.164,119.964-77.27,158.356c-1.822,1.424-2.887,3.608-2.887,5.921v124.287c0,4.15,3.364,7.515,7.515,7.515
				s7.515-3.365,7.515-7.515V383.824c50.992-41.247,80.157-102.228,80.157-167.902C471.922,158.247,449.463,104.024,408.68,63.242z"
				/>
		</g>
	</g>
	<g>
		<g>
			<path d="M359.418,146.136c-2.846-28.014-26.572-49.949-55.323-49.949c-6.722,0-13.409,1.23-19.668,3.592
				c-11.793-17.206-31.318-27.639-52.472-27.639c-35.083,0-63.624,28.542-63.624,63.624c0,3.088,0.22,6.151,0.658,9.175
				c-3.025-0.438-6.087-0.658-9.175-0.658c-35.083,0-63.624,28.542-63.624,63.624s28.542,63.624,63.624,63.624h123.909
				c4.151,0,7.515-3.365,7.515-7.515c0-4.15-3.364-7.515-7.515-7.515h-123.91c-26.795,0-48.595-21.8-48.595-48.595
				s21.8-48.595,48.595-48.595c5.813,0,11.502,1.019,16.913,3.028c5.905,2.194,11.853-3.755,9.662-9.661
				c-2.01-5.412-3.028-11.102-3.028-16.913c0-26.795,21.8-48.595,48.595-48.595c17.969,0,34.4,9.859,42.883,25.729
				c1.956,3.66,6.506,5.042,10.169,3.086c5.835-3.119,12.436-4.767,19.089-4.767c22.376,0,40.579,18.204,40.579,40.544l-0.014,0.498
				c-0.058,3.782,2.705,7.019,6.451,7.554c23.748,3.392,41.656,24.068,41.656,48.093c0,26.795-21.8,48.595-48.595,48.595h-23.045
				c-4.151,0-7.515,3.365-7.515,7.515s3.364,7.515,7.515,7.515h23.045c35.082-0.001,63.624-28.543,63.624-63.625
				C407.797,178.569,387.398,153.046,359.418,146.136z"/>
		</g>
	</g>
	<g>
		<g>
			<path d="M295.164,173.385c-1.03-2.971-3.958-5.056-7.101-5.056h-18.021l24.274-28.896c3.271-4.907-0.374-11.683-6.252-11.683
				H239.97c-2.513,0-4.86,1.255-6.252,3.347l-32.063,40.579c-3.271,4.907,0.374,11.683,6.252,11.683h11.888l-26.625,53.25
				c-1.412,2.824-0.872,6.326,1.328,8.592c2.573,2.649,6.824,3.022,9.813,0.847l88.172-64.125
				C295.108,180.013,296.225,176.451,295.164,173.385z M220.393,215.765l18.281-36.561c2.458-4.912-1.24-10.875-6.721-10.875h-10.006
				l22.043-25.55h30.032l-24.274,28.896c-3.271,4.907,0.374,11.683,6.252,11.683h8.955L220.393,215.765z"/>
		</g>
	</g>
</svg>
