<?xml version="1.0" encoding="utf-8"?>
<!-- Generator: Adobe Illustrator 21.1.0, SVG Export Plug-In . SVG Version: 6.00 Build 0)  -->
<svg version="1.1" id="Слой_1" xmlns="http://www.w3.org/2000/svg" xmlns:xlink="http://www.w3.org/1999/xlink" x="0px" y="0px"
	 viewBox="0 0 413.414 409.704" style="enable-background:new 0 0 413.414 409.704; fill: #fff" xml:space="preserve">
<path d="M3.8,295.2c15.945-21.814,50.325-22.528,67.448-1.289c1.878,2.329,3.853,2.649,6.622,3.153
	c7.098,1.291,10.443-1.859,14.248-7.472c8.756-12.916,21.757-19.178,37.326-19.959c4.7-0.236,7.531,1.951,7.686,5.645
	c0.152,3.633-2.501,6.005-7.214,6.334c-15.89,1.11-26.899,9.004-33.096,23.672c-2.475,5.858-4.311,6.34-10.607,4.796
	c-3.621-0.888-7.632-1.055-11.331-0.551c-5.707,0.778-7.021,0.564-10.22-4.442c-9.932-15.541-30.768-19.432-45.498-8.566
	c-2.304,1.699-3.461,3.514-3.407,6.595c0.217,12.396,0.109,24.797,0.131,37.197c0,0.253,0.113,0.505,0.227,0.984
	c0.379,0.096,0.857,0.324,1.335,0.323c52.399-0.015,104.798-0.069,157.197-0.02c2.86,0.003,4.173-0.646,4.815-3.676
	c2.012-9.495,4.41-18.909,6.866-29.225c-3.764,0.956-7.041,1.672-10.246,2.629c-5.593,1.671-7.976,0.817-10.006-4.567
	c-3.272-8.678-8.692-15.423-16.572-20.347c-4.097-2.561-4.956-5.921-2.874-9.032c2.016-3.014,5.541-3.287,9.502-0.875
	c7.811,4.756,13.989,11.059,18.067,19.264c1.176,2.367,2.488,2.898,5.032,2.216c3.062-0.82,6.287-1.03,10.01-1.59
	c5.876-24.637,11.821-49.563,17.734-74.358c-5.289-0.407-10.518-0.175-15.432-1.306c-15.467-3.562-25.914-19.181-24.104-34.976
	c0.186-1.621-0.377-3.721-1.357-5.025c-17.37-23.124-8.419-54.254,18.655-64.878c1.336-0.524,2.721-2.07,3.204-3.448
	c6.956-19.842,26.331-30.167,46.634-24.84c1.478,0.388,3.57,0.268,4.797-0.519c8.376-5.371,17.547-7.37,27.364-7.341
	c25.733,0.074,51.466,0.037,77.199,0.059c1.329,0.001,3.044-0.361,3.908,0.311c1.824,1.417,3.976,3.178,4.577,5.216
	c0.829,2.811-1.038,5.139-3.996,5.951c-1.513,0.415-3.155,0.495-4.739,0.499c-14.533,0.036-29.066,0.021-43.599,0.021
	c-1.455,0-2.91,0-5.049,0c0.947,1.263,1.562,2.012,2.101,2.812c2.519,3.744,5.791,7.215,7.32,11.332
	c1.774,4.779,4.354,6.017,9.092,5.744c6.91-0.398,13.861-0.106,20.794-0.097c1.199,0.001,2.408-0.035,3.595,0.101
	c3.471,0.398,5.721,2.155,5.863,5.85c0.129,3.377-2.228,5.854-6.134,5.945c-7.995,0.187-15.998,0.087-23.997,0.104
	c-1.56,0.003-3.121,0-4.588,0c-0.491,3.854-1.135,7.137-1.217,10.434c-0.032,1.288,0.988,2.783,1.896,3.879
	c3.384,4.086,7.146,7.875,10.326,12.107c2.466,3.281,1.763,6.88-1.013,8.849c-2.97,2.106-5.984,1.069-8.957-2.268
	c-3.863-4.337-7.86-8.631-12.29-12.361c-3.466-2.918-3.84-5.826-2.65-9.857c5.63-19.064-5.293-37.668-24.607-41.809
	c-9.61-2.06-18.619-0.205-26.388,5.964c-3.4,2.7-6.471,3.228-10.625,1.664c-15.649-5.893-31.019,2.413-34.675,18.721
	c-0.984,4.388-3.15,6.502-7.439,7.616c-21.713,5.642-29.507,31.585-14.474,48.273c2.887,3.205,3.915,6.149,2.906,10.41
	c-1.934,8.167,0.862,15.07,7.29,20.247c6.524,5.254,13.932,5.549,21.481,2.448c1.053-0.432,1.991-2.018,2.302-3.242
	c2.291-9.031,4.329-18.126,6.604-27.161c2.17-8.617,8.937-14.136,17.086-14.188c7.703-0.049,14.788,4.932,16.592,12.505
	c0.799,3.353,0.673,7.195-0.056,10.596c-2.592,12.102-5.627,24.11-8.481,36.156c-0.267,1.126-0.443,2.274-0.729,3.77
	c7.315-0.269,13.474-2.662,17.999-7.841c3.799-4.348,7.785-5.393,13.383-4.477c21.032,3.44,41.942-14.685,42.334-36.31
	c0.024-1.333-0.025-2.67,0.055-3.999c0.226-3.764,2.577-6.276,5.855-6.323c3.185-0.046,6.09,2.54,5.995,6.213
	c-0.13,5.031-0.399,10.164-1.525,15.042c-2.011,8.712-6.344,16.336-12.745,22.693c-0.567,0.563-1.121,1.142-1.637,1.751
	c-0.143,0.169-0.128,0.472-0.309,1.236c3.109,0,6.107-0.044,9.104,0.01c4.425,0.08,7.117,2.265,7.227,5.775
	c0.11,3.531-2.549,6.146-6.896,6.167c-15.997,0.079-31.995-0.061-47.992,0.062c-1.758,0.014-3.884,0.758-5.198,1.901
	c-6.876,5.985-14.73,9.839-23.814,10.046c-4.316,0.098-5.894,1.659-6.267,5.481c-0.1,1.026-0.348,2.037-0.512,2.959
	c3.823,0,7.6-0.601,11.102,0.126c7.181,1.491,11.958,7.47,12.925,15.032c0.85,6.645-2.646,13.739-9.066,16.883
	c-7.283,3.567-14.793,6.692-22.307,9.757c-2.393,0.976-3.644,2.323-3.993,4.812c-0.258,1.84-0.767,3.646-1.181,5.463
	c-2.175,9.542-2.212,9.579,4.827,16.148c0.83,0.774,2.279,1.01,3.489,1.231c6.766,1.233,10.742-1.694,14.957-7.285
	c14.44-19.15,43.105-23.315,63.325-10.1c1.105,0.722,2.216,1.433,3.492,2.258c5.914-6.093,12.612-10.743,20.699-13.262
	c10.738-3.344,21.299-2.93,31.631,1.409c2.309,0.97,3.677,0.827,5.474-1.028c8.871-9.158,19.69-14.856,32.168-17.418
	c5.713-1.173,8.809,1.204,8.815,7.034c0.038,38.533,0.06,77.066-0.011,115.599c-0.018,9.59-6.541,16.006-16.077,16.241
	c-1.199,0.03-2.4,0.008-3.6,0.008c-123.333,0-246.665-0.055-369.998,0.105C13.798,409.717,6.92,406.523,3.8,396.8
	C3.8,362.933,3.8,329.067,3.8,295.2z M16.327,377.744c-0.201,0.443-0.395,0.674-0.398,0.907c-0.04,3.864-0.081,7.729-0.073,11.593
	c0.015,6.848,0.488,7.335,7.18,7.336c115.04,0.009,230.08,0.013,345.12,0.018c9.331,0,18.662-0.021,27.993,0.015
	c2.465,0.009,4.94-0.395,5.089-3.255c0.287-5.525,0.084-11.075,0.084-16.614C272.612,377.744,144.428,377.744,16.327,377.744z
	 M401.228,284.105c-9.416,3.05-16.893,8.291-23.087,15.548c-4.582,5.369-5.821,5.252-12.328,2.32
	c-4.184-1.885-8.703-3.628-13.209-4.085c-12.243-1.241-22.406,3.244-30.246,12.825c-5.309,6.489-7.345,6.617-13.61,1.265
	c-1.91-1.632-4.008-3.117-6.211-4.32c-18.563-10.133-41.365-2.723-50.503,16.341c-3.14,6.551-4.49,6.981-11.529,4.86
	c-2.329-0.702-5.266-1.235-7.384-0.427c-5.599,2.135-9.222,0.338-12.065-4.399c-0.391-0.651-1.015-1.162-1.942-2.197
	c-1.53,6.763-2.941,13.002-4.431,19.592c62.569,0,124.471,0,186.545,0C401.228,322.365,401.228,303.477,401.228,284.105z
	 M16.113,365.232c128.532,0,256.798,0,385.147,0c0.056-1.211,0.127-2.134,0.136-3.057c0.087-8.648,0.084-8.65-8.586-8.649
	c-122.222,0.009-244.445,0.018-366.667,0.031C15.351,353.557,15.078,353.877,16.113,365.232z M202.124,341.322
	c0.306-1.118,0.655-2.246,0.922-3.393c3.984-17.099,8.024-34.186,11.881-51.314c0.842-3.739,2.69-6.092,6.256-7.541
	c7.884-3.205,15.683-6.621,23.477-10.041c3.933-1.726,5.268-4.376,4.014-7.453c-1.331-3.265-4.221-4.128-8.415-2.439
	c-2.714,1.093-5.431,2.19-8.076,3.437c-2.831,1.335-5.577,1.978-8.162-0.368c-2.43-2.205-2.062-4.92-1.372-7.769
	c4.603-19.002,9.164-38.015,13.699-57.034c1.264-5.301,2.537-10.607,3.528-15.963c0.565-3.056-1.063-5.264-4.064-5.931
	c-3.059-0.679-5.116,0.966-6.207,3.755c-0.481,1.229-0.687,2.568-0.996,3.862c-9.232,38.682-18.466,77.364-27.687,116.049
	c-3.326,13.955-6.617,27.918-9.987,42.143C194.806,341.322,198.35,341.322,202.124,341.322z"/>
<path d="M369.4,0c1.608,0.584,3.383,0.906,4.788,1.807c2.879,1.846,5.929,3.653,8.246,6.102c4.906,5.186,7.182,15.026,4.153,19.196
	c-4.328,5.959-10.921,7.21-17.855,6.423c-10.193-1.157-18.219-9.965-18.717-20.223c-0.309-6.367,0.943-8.444,6.783-11.205
	c1.524-0.721,3.068-1.401,4.603-2.1C364.067,0,366.733,0,369.4,0z M362.149,13.193c1.623,7.219,7.736,10.421,13.208,7.159
	C373.682,13.505,368.418,10.578,362.149,13.193z"/>
<path d="M292.579,241.071c11.775,0.493,21.707,9.916,22.151,21.46c0.161,4.181-1.388,7.331-5.154,9.58
	c-13.738,8.205-31.602-1.066-32.915-17.086c-0.424-5.176,1.495-8.904,6.15-10.91C285.926,242.771,289.314,242.063,292.579,241.071z
	 M302.105,262.013c-0.774-6.859-7.324-10.352-13.14-7.007C290.843,261.844,296.027,264.608,302.105,262.013z"/>
<path d="M291.56,63.012c-6.895-0.299-12.577-2.956-16.966-8.403c-2.135-2.65-2.705-5.528-1.663-8.603
	c2.918-8.613,9.014-13.718,17.967-14.984c8.686-1.228,15.918,1.887,20.551,9.302c1.357,2.172,1.295,5.999,0.47,8.623
	C309.327,57.198,300.269,63.13,291.56,63.012z M300.135,45.502c-5.645-4.558-12.21-3.215-14.738,2.826
	C290.876,52.607,296.583,51.598,300.135,45.502z"/>
<path d="M363.479,200.851c-0.608-0.049-1.691-0.022-2.723-0.238c-14.432-3.022-16.013-12.36-8.475-24.059
	c6.391-9.92,20.315-11.996,30.024-5.264c2.642,1.832,3.85,4.173,3.905,7.367C386.42,190.946,376.502,200.875,363.479,200.851z
	 M360.459,187.747c6.762,2.564,12.614-0.874,13.067-7.389C366.934,178.116,361.853,180.929,360.459,187.747z"/>
<path d="M364.989,123.709c-2.454-0.124-4.866-0.078-7.227-0.406c-3.279-0.455-4.915-2.785-4.877-5.853
	c0.036-2.881,1.613-5.33,4.731-5.52c4.759-0.289,9.566-0.334,14.318-0.002c3.021,0.211,4.648,2.509,4.657,5.542
	c0.009,3.207-1.692,5.315-4.897,5.81C369.472,123.624,367.191,123.582,364.989,123.709z"/>
<path d="M348.046,214.371c2.13-0.001,4.277-0.169,6.387,0.038c3.197,0.314,5.121,2.24,5.342,5.444
	c0.223,3.233-1.449,5.731-4.612,5.988c-4.868,0.394-9.818,0.345-14.687-0.064c-3.036-0.255-4.562-2.832-4.423-5.758
	c0.147-3.096,1.948-5.278,5.208-5.604C343.502,214.192,345.783,214.373,348.046,214.371z"/>
</svg>
