<?xml version="1.0" encoding="utf-8"?>
<!-- Generator: Adobe Illustrator 21.1.0, SVG Export Plug-In . SVG Version: 6.00 Build 0)  -->
<svg version="1.1" id="Layer_1" xmlns="http://www.w3.org/2000/svg" xmlns:xlink="http://www.w3.org/1999/xlink" x="0px" y="0px"
	 viewBox="0 0 511.904 511.904" style="enable-background:new 0 0 511.904 511.904;" xml:space="preserve">
<g>
	<g>
		<g>
			<path d="M500.717,79.26l-68.113-68.275c-14.575-14.583-40.149-14.592-54.827,0.094L96.271,301.118
				c-11.034,11.034-11.034,22.938-11.034,31.633v34.133c0,5.001-0.341,5.333-6.033,11.034l-68.267,68.267
				c-14.583,14.575-14.583,40.158,0,54.733c7.287,7.287,17.323,10.931,27.366,10.931c10.044,0,20.079-3.644,27.366-10.931
				l59.733-59.733c3.337-3.337,3.337-8.73,0-12.066c-3.337-3.337-8.73-3.337-12.066,0l-59.733,59.733
				c-7.868,7.868-22.733,7.868-30.601,0c-8.004-8.013-8.004-22.596,0-30.601l68.267-68.267c6.409-6.4,11.034-11.034,11.034-23.1
				v-34.133c0-7.56,0-13.534,6.127-19.661L389.937,23.051c3.891-3.891,9.293-6.025,15.223-6.025h0.188
				c5.862,0.043,11.409,2.244,15.181,6.016l68.113,68.275c4.011,4.002,6.212,9.446,6.195,15.326
				c-0.009,5.862-2.21,11.29-6.101,15.189L198.671,403.518c-6.033,6.033-11.708,6.033-19.567,6.033h-34.133
				c-4.719,0-8.533,3.823-8.533,8.533s3.814,8.533,8.533,8.533h34.133c9.173,0,20.599,0,31.539-10.948l290.074-281.685
				c7.194-7.194,11.17-16.896,11.187-27.307C511.93,96.224,507.953,86.488,500.717,79.26z"/>
			<path d="M36.538,475.317c1.664,1.664,3.849,2.5,6.033,2.5s4.369-0.836,6.033-2.5l341.333-341.333
				c3.336-3.337,3.336-8.73,0-12.066l-25.6-25.6c-3.337-3.337-8.73-3.337-12.066,0c-3.336,3.336-3.336,8.73,0,12.066l19.567,19.567
				l-22.067,22.067l-11.034-11.034c-3.337-3.336-8.73-3.336-12.066,0c-3.337,3.337-3.337,8.73,0,12.066l11.034,11.034
				l-22.067,22.067l-11.034-11.034c-3.337-3.337-8.73-3.337-12.066,0s-3.336,8.73,0,12.066l11.034,11.034l-22.067,22.067
				l-19.567-19.567c-3.337-3.336-8.73-3.336-12.066,0c-3.337,3.337-3.337,8.73,0,12.066l19.567,19.567l-22.067,22.067
				l-11.034-11.034c-3.337-3.337-8.73-3.337-12.066,0s-3.337,8.73,0,12.066l11.034,11.034l-22.067,22.067l-11.034-11.034
				c-3.337-3.336-8.73-3.336-12.066,0c-3.337,3.337-3.337,8.73,0,12.066l11.034,11.034l-22.067,22.067l-19.567-19.567
				c-3.337-3.337-8.73-3.337-12.066,0s-3.337,8.73,0,12.066l19.567,19.567l-130.5,130.5
				C33.201,466.588,33.201,471.981,36.538,475.317z"/>
		</g>
	</g>
</g>
</svg>
