<?xml version="1.0" encoding="utf-8"?>
<!-- Generator: Adobe Illustrator 21.1.0, SVG Export Plug-In . SVG Version: 6.00 Build 0)  -->
<svg version="1.1" id="Capa_1" xmlns="http://www.w3.org/2000/svg" xmlns:xlink="http://www.w3.org/1999/xlink" x="0px" y="0px"
	 viewBox="0 0 181.124 211.078" style="enable-background:new 0 0 181.124 211.078;" xml:space="preserve">
<path d="M90.494,211.078c-37.511,0-68.028-30.517-68.028-68.027v-0.988h-1.487C9.411,142.063,0,132.652,0,121.084v-9.606
	C0,99.91,9.411,90.499,20.979,90.499h1.487V59.581c0-11.853,5.485-23.12,14.753-30.465c-0.332-1.606-0.506-3.262-0.506-4.943
	c0-4.319,2.3-8.756,6.152-11.868c0.039-0.031,0.078-0.061,0.119-0.09l2.334-1.666c0.083-0.059,0.169-0.113,0.259-0.162
	c0.364-0.198,0.776-0.446,1.249-0.729c2.198-1.319,5.521-3.312,11.014-4.987c7.603-2.491,15.589-3.942,24.416-4.438
	c33.802-1.896,63.835,7.951,73.095,23.951c1.237,1.868,2.24,3.64,3.064,5.413c7.617,16.383,1.424,33.58,0.106,36.859v24.042h1.624
	c11.567,0,20.979,9.411,20.979,20.979v9.606c0,11.568-9.411,20.979-20.979,20.979h-1.624v0.988
	C158.521,180.561,128.005,211.078,90.494,211.078z M27.465,139.563v3.488c0,34.753,28.274,63.027,63.027,63.027
	c34.754,0,63.028-28.274,63.028-63.027V121.86h-4.43c-0.668,0-1.309-0.267-1.777-0.742c-0.47-0.475-0.73-1.118-0.723-1.786
	c0.004-0.29,0.304-29.082-1.926-37.997c-2.013-8.055-7.762-11.271-8.006-11.405c-0.596-0.325-1.04-0.882-1.22-1.536
	c-0.18-0.655-0.092-1.358,0.254-1.941c0.033-0.055,3.432-5.876,3.581-11.458c0.023-0.87-3.563-2.989-8.304-4.338
	c-5.415-1.159-9.584-1.1-9.683-1.095c-0.02,0-0.041,0-0.061,0h-52c-7.521,0-14.019-1.292-19.313-3.842
	c-0.886-0.426-1.738-0.908-2.554-1.439c-2.335,2.7-5.657,7.304-5.648,10.775c0.014,5.563,3.521,11.301,3.557,11.358
	c0.363,0.588,0.467,1.301,0.286,1.969c-0.182,0.667-0.631,1.23-1.242,1.554c-0.23,0.126-5.979,3.343-7.992,11.398
	c-2.23,8.917-1.93,37.707-1.926,37.997c0.008,0.668-0.253,1.311-0.723,1.786c-0.469,0.475-1.109,0.742-1.777,0.742h-4.43v17.703
	H27.465z M158.658,137.063h1.487c8.811,0,15.979-7.168,15.979-15.979v-9.606c0-8.811-7.168-15.979-15.979-15.979h-1.487V137.063z
	 M20.978,95.499c-8.812,0-15.979,7.168-15.979,15.979v9.606c0,8.811,7.168,15.979,15.979,15.979h1.487V95.499H20.978z
	 M151.608,116.86h1.913V66.594c-2.173-4.739-5.538-8.161-9.288-10.63c-0.302,4.366-1.991,8.548-3.146,10.954
	c2.525,1.973,6.663,6.138,8.43,13.204C151.516,88.119,151.63,109.462,151.608,116.86z M27.465,116.86h1.913
	c-0.022-7.398,0.092-28.741,2.091-36.738c1.761-7.043,5.877-11.204,8.404-13.184c-1.272-2.577-3.149-7.171-3.161-11.87
	c-0.013-5.307,4.22-11.005,6.778-13.963c-1.924-1.964-3.501-4.273-4.648-6.826c-7.177,6.392-11.377,15.623-11.377,25.302V116.86z
	 M121.674,44.479c3.392,0,23.563,0.639,33.742,15.312c0.354-1.348,0.71-2.915,1.002-4.647c-2.934-2.858-13.531-12.211-29.298-15.208
	c-11.023-2.095-24.041-1.284-36.633-0.499c-9.361,0.584-19.042,1.188-27.616,0.536c-8.314-0.631-14.076-2.8-18.019-5.227
	c1.809,2.758,4.322,5.016,7.344,6.451c4.591,2.182,10.318,3.288,17.021,3.288h52C121.283,44.482,121.437,44.479,121.674,44.479z
	 M110.38,33.601c6.125,0,12.095,0.361,17.675,1.422c13.856,2.634,23.881,9.605,29.016,13.95c0.089-2.201,0.025-4.529-0.272-6.915
	c-6.97-6.976-19.33-11.841-35.824-14.089c-8.735-1.189-18.695,0.165-29.238,1.599c-10.626,1.445-21.613,2.941-31.5,1.64
	c-10.966-1.443-15.991-5.392-18.281-8.933c-0.158,0.638-0.241,1.275-0.241,1.898c0,0.235,0.004,0.47,0.013,0.704
	c0.813,1.573,5.431,8.886,21.525,10.109c8.229,0.625,17.313,0.059,26.926-0.541C96.892,34.027,103.727,33.601,110.38,33.601z
	 M113.743,22.521c2.713,0,5.358,0.146,7.906,0.493c13.972,1.904,25.27,5.678,33.214,11.041c-0.293-0.786-0.62-1.571-0.982-2.351
	c-0.728-1.565-1.624-3.143-2.741-4.824c-0.031-0.047-0.061-0.095-0.089-0.144c-0.004-0.008-0.009-0.016-0.014-0.024
	c-8.202-14.219-36.996-23.259-68.502-21.488c-8.4,0.472-15.981,1.848-23.176,4.209C59.33,9.442,59.3,9.452,59.271,9.46
	c-4.89,1.495-7.888,3.293-9.874,4.484c-0.482,0.29-0.91,0.545-1.294,0.758l-2.151,1.536c-0.292,0.239-0.572,0.489-0.84,0.749
	c0.314,1.97,2.399,7.501,15.775,9.262c9.222,1.215,19.873-0.235,30.173-1.637C98.653,23.58,106.436,22.521,113.743,22.521z
	 M126.173,178.535H55.95c-1.381,0-2.5-1.119-2.5-2.5c0-20.94,19.497-30.478,37.612-30.478c18.114,0,37.611,9.538,37.611,30.478
	C128.673,177.416,127.554,178.535,126.173,178.535z M58.569,173.535h64.984c-0.297-3.035-1.125-5.647-2.257-7.885H60.81
	C59.632,167.991,58.852,170.616,58.569,173.535z M64.281,160.65h53.535c-1.322-1.44-2.729-2.616-4.06-3.559
	c-5.95-4.214-14.01-6.535-22.694-6.535C81.064,150.557,70.581,153.787,64.281,160.65z M55.562,122.896
	c-0.963,0-1.881-0.56-2.291-1.499c-0.554-1.265,0.023-2.739,1.288-3.292l16.932-7.408l-16.932-7.408
	c-1.265-0.554-1.842-2.028-1.288-3.292c0.553-1.266,2.028-1.84,3.292-1.289l22.167,9.698c0.91,0.398,1.498,1.297,1.498,2.291
	s-0.588,1.892-1.498,2.291l-22.167,9.699C56.237,122.829,55.897,122.896,55.562,122.896z M126.56,122.896
	c-0.335,0-0.675-0.067-1.001-0.21l-22.166-9.699c-0.91-0.398-1.498-1.297-1.498-2.291s0.588-1.892,1.498-2.291l22.166-9.698
	c1.263-0.553,2.739,0.023,3.292,1.289c0.554,1.265-0.023,2.739-1.288,3.292l-16.932,7.408l16.932,7.408
	c1.265,0.554,1.842,2.028,1.288,3.292C128.441,122.337,127.523,122.896,126.56,122.896z M108.441,86.893
	c-0.742,0-1.476-0.328-1.969-0.957c-0.853-1.086-0.662-2.658,0.424-3.51l5.458-4.281c2.615-2.052,6.101-2.787,9.323-1.964
	l6.415,1.637c1.338,0.341,2.146,1.703,1.805,3.041c-0.343,1.338-1.71,2.143-3.041,1.804l-6.415-1.637
	c-1.727-0.44-3.597-0.046-5.001,1.054l-5.458,4.281C109.524,86.719,108.98,86.893,108.441,86.893z M100.424,78.395
	c-1.001,0-1.945-0.604-2.33-1.593c-0.502-1.287,0.135-2.736,1.422-3.237l3.172-1.236c1.441-0.562,2.578-1.651,3.199-3.069
	c0.621-1.418,0.653-2.992,0.089-4.433l-1.565-3.997c-0.503-1.286,0.131-2.736,1.417-3.239c1.285-0.506,2.735,0.13,3.239,1.416
	l1.565,3.998c1.052,2.687,0.992,5.621-0.166,8.263c-1.158,2.642-3.276,4.674-5.964,5.721l-3.172,1.236
	C101.033,78.341,100.726,78.395,100.424,78.395z M130.533,71.427h-4.063c-5.594,0-10.317-4.369-10.753-9.947l-0.253-3.236
	c-0.107-1.376,0.921-2.58,2.298-2.687c1.36-0.114,2.579,0.92,2.687,2.297l0.253,3.236c0.234,2.993,2.768,5.336,5.769,5.336h4.063
	c1.381,0,2.5,1.119,2.5,2.5S131.914,71.427,130.533,71.427z"/>
</svg>
