<?xml version="1.0" encoding="utf-8"?>
<!-- Generator: Adobe Illustrator 21.1.0, SVG Export Plug-In . SVG Version: 6.00 Build 0)  -->
<svg version="1.1" id="Capa_1" xmlns="http://www.w3.org/2000/svg" xmlns:xlink="http://www.w3.org/1999/xlink" x="0px" y="0px"
	 viewBox="0 0 403.874 512.002" style="enable-background:new 0 0 403.874 512.002;" xml:space="preserve">
<g>
	<g>
		<path d="M143.433,361.101H99.41c-5.523,0-10,4.477-10,10s4.477,10,10,10h44.022c5.523,0,10-4.477,10-10
			C153.433,365.578,148.956,361.101,143.433,361.101z"/>
	</g>
</g>
<g>
	<g>
		<path d="M178.137,277.686h-31.309c-5.523,0-10,4.477-10,10s4.477,10,10,10h31.309c5.523,0,10-4.477,10-10
			S183.66,277.686,178.137,277.686z"/>
	</g>
</g>
<g>
	<g>
		<path d="M178.137,237.685h-62.695c-5.523,0-10,4.477-10,10s4.477,10,10,10h62.695c5.523,0,10-4.477,10-10
			S183.66,237.685,178.137,237.685z"/>
	</g>
</g>
<g>
	<g>
		<path d="M123.217,85.341c-2.384-4.979-8.385-7.068-13.366-4.688l-0.212,0.102c-4.966,2.416-6.992,8.38-4.576,13.347
			c1.729,3.551,5.305,5.61,9.018,5.61c1.478,0,2.978-0.326,4.392-1.014c0.005-0.002,0.08-0.038,0.085-0.04
			C123.535,96.271,125.6,90.319,123.217,85.341z"/>
	</g>
</g>
<g>
	<g>
		<path d="M398.872,129.247l-16.589-9.578c0.365-3.21,0.549-6.447,0.549-9.681c0-3.235-0.184-6.472-0.549-9.681l16.589-9.577
			c3.99-2.304,5.89-7.035,4.601-11.459c-2.465-8.456-5.956-16.626-10.378-24.284c-4.419-7.656-9.749-14.764-15.84-21.13
			c-3.186-3.328-8.233-4.05-12.225-1.746l-16.59,9.578c-5.216-3.878-10.821-7.121-16.766-9.698V12.854
			c0-4.607-3.149-8.619-7.624-9.713c-17.115-4.187-35.322-4.188-52.438,0c-4.476,1.095-7.624,5.106-7.624,9.713v19.138
			c-5.945,2.578-11.552,5.82-16.767,9.698l-16.589-9.578c-3.989-2.304-9.038-1.583-12.225,1.746
			c-1.603,1.674-3.149,3.404-4.643,5.178c-15.523-4.679-31.612-7.048-47.927-7.048c-44.105,0-85.691,17.121-117.095,48.211
			C17.31,111.315,0,152.533,0,196.26v115.002c0,63.341,39.773,117.65,95.876,139.715c3.59,34.244,32.627,61.025,67.806,61.025
			h61.373c37.597,0,68.185-30.587,68.185-68.185v-78.628c5.446-13.954,8.748-28.729,9.76-43.925h18.676
			c21.138,0,38.334-17.068,38.334-38.049v-7.479c0-17.546-12.031-32.35-28.334-36.728v-51.022c5.945-2.578,11.551-5.82,16.766-9.697
			l16.59,9.579c3.989,2.304,9.038,1.583,12.225-1.746c6.092-6.365,11.421-13.474,15.84-21.129
			c4.421-7.657,7.913-15.827,10.378-24.285C404.762,136.282,402.863,131.551,398.872,129.247z M225.053,492H163.68
			c-21.752,0-40.175-14.493-46.143-34.327c10.974,2.51,22.4,3.837,34.132,3.837c40.337,0,78.368-15.658,107.09-44.091
			c5.267-5.214,10.096-10.741,14.478-16.533v42.93l0,0C273.237,470.385,251.622,492,225.053,492z M340.007,275.734v7.479
			c0,9.952-8.224,18.048-18.333,18.048h-28.335c-5.522,0-10,4.477-10,10c0,16.689-3.193,32.653-9.001,47.33
			c-0.268,0.524-0.497,1.073-0.67,1.646c-19.607,47.616-66.9,81.272-121.998,81.272c-14.73,0-28.902-2.405-42.137-6.839
			c-0.465-0.206-0.95-0.371-1.448-0.504c-51.247-17.835-88.084-66.191-88.084-122.904v-53.576h33.947v76.017c0,5.523,4.477,10,10,10
			h35.464c5.523,0,10-4.477,10-10s-4.477-10-10-10H73.948v-76.017c0-5.523-4.477-10-10-10h-43.95v-41.425
			c0-79.552,65.422-144.272,145.837-144.272c12.176,0,24.207,1.502,35.91,4.468c-2.655,4.765-4.953,9.719-6.874,14.811
			c-9.494-2.178-19.208-3.279-29.037-3.279c-8.52,0-17.066,0.841-25.401,2.5c-5.417,1.078-8.934,6.343-7.856,11.76
			c1.078,5.416,6.34,8.93,11.76,7.855c7.052-1.404,14.284-2.115,21.497-2.115c12.977,0,25.716,2.277,37.883,6.742l9.658,5.576
			c-0.365,3.21-0.549,6.446-0.549,9.68s0.184,6.471,0.549,9.681l-16.589,9.578c-3.99,2.304-5.89,7.036-4.6,11.46
			c2.466,8.456,5.957,16.626,10.377,24.283c4.421,7.656,9.75,14.765,15.841,21.13c3.188,3.329,8.235,4.05,12.225,1.746l16.589-9.579
			c5.216,3.878,10.822,7.121,16.767,9.698v19.138c0,4.607,3.148,8.619,7.624,9.713c8.555,2.093,17.376,3.154,26.219,3.154
			c4.632,0,9.258-0.299,13.843-0.877v18.57h-18.334c-5.522,0-10,4.477-10,10s4.478,10,10,10h28.335
			C331.782,257.685,340.007,265.781,340.007,275.734z M361.544,97.054c0.854,4.229,1.287,8.58,1.287,12.933
			c0,4.349-0.434,8.701-1.288,12.936c-0.849,4.209,1.084,8.491,4.803,10.638l15.429,8.908c-1.674,4.311-3.681,8.5-6.001,12.519
			c-2.319,4.018-4.943,7.85-7.842,11.456l-15.443-8.917c-3.724-2.15-8.403-1.678-11.624,1.169
			c-6.573,5.812-14.099,10.165-22.369,12.937c-4.075,1.366-6.822,5.184-6.822,9.481v17.81c-9.14,1.412-18.544,1.412-27.686,0v-17.81
			c0-4.299-2.747-8.116-6.823-9.482c-8.266-2.769-15.791-7.122-22.369-12.937c-3.222-2.848-7.902-3.318-11.624-1.169l-15.442,8.917
			c-2.898-3.605-5.523-7.439-7.843-11.457c-2.319-4.017-4.326-8.207-6-12.519l15.428-8.907c3.719-2.147,5.651-6.429,4.802-10.639
			c-0.854-4.233-1.287-8.585-1.287-12.935c0-4.349,0.434-8.701,1.288-12.935c0.849-4.209-1.084-8.491-4.803-10.638l-15.428-8.907
			c1.673-4.312,3.681-8.501,6-12.519c2.32-4.018,4.944-7.851,7.843-11.457l15.442,8.917c3.723,2.149,8.403,1.679,11.624-1.169
			c6.574-5.813,14.101-10.166,22.371-12.938c4.075-1.366,6.821-5.184,6.821-9.482V21.049c9.144-1.414,18.543-1.414,27.686,0v17.809
			c0,4.298,2.747,8.116,6.823,9.482c8.265,2.769,15.79,7.122,22.368,12.938c3.22,2.848,7.9,3.318,11.624,1.169l15.443-8.917
			c2.898,3.606,5.522,7.439,7.842,11.457s4.327,8.207,6.001,12.519l-15.429,8.906C362.626,88.562,360.694,92.844,361.544,97.054z"/>
	</g>
</g>
<g>
	<g>
		<path d="M297.83,59.986c-27.571,0-50.002,22.431-50.002,50.002c0,27.572,22.432,50.001,50.002,50.001
			c27.571,0,50.001-22.431,50.001-50.001C347.832,82.418,325.402,59.986,297.83,59.986z M297.83,139.989
			c-16.543,0-30.002-13.458-30.002-30.001s13.458-30.002,30.002-30.002c16.542,0,30.001,13.458,30.001,30.002
			C327.831,126.531,314.373,139.989,297.83,139.989z"/>
	</g>
</g>
</svg>
