<?xml version="1.0" encoding="utf-8"?>
<!-- Generator: Adobe Illustrator 21.1.0, SVG Export Plug-In . SVG Version: 6.00 Build 0)  -->
<svg version="1.1" id="Слой_1"  className='term__icon icon-15'   xmlns="http://www.w3.org/2000/svg" xmlns:xlink="http://www.w3.org/1999/xlink" x="0px" y="0px"
	 viewBox="0 0 37.917 37.57" style="enable-background:new 0 0 37.917 37.57;" xml:space="preserve">
	<style type="text/css">
		.st0{fill:none;stroke:#000000;stroke-miterlimit:10;}
	</style>
	<path d="M3.018,13.587l-0.036-0.046c-0.238,0.109-0.601,0.374-0.694,0.3c-0.663-0.526-1.27-1.121-1.896-1.694
		c0.062-0.086,0.124-0.173,0.186-0.259C1.391,12.454,2.205,13.021,3.018,13.587z"/>
	<path d="M16.519,23.263c1.517-1.652,4.351-1.668,5.99-0.02c-1.172-0.246-2.108-0.597-3.043-0.595
		C18.553,22.649,17.642,23.012,16.519,23.263z"/>
	<path class="st0" d="M29.667,15.542c-0.809,6.925-4.552,12.625-10.167,12.625s-9.352-5.7-10.167-12.625
		C7.917,3.5,14.047,0.7,19.662,0.7S31.083,3.417,29.667,15.542z"/>
	<path class="st0" d="M9.209,14.277c0-2.691,2.384-6.274,4.291-6.274l0.119,0c3.256,3.247,10.422,3.456,15.527-1.146"/>
	<path class="st0" d="M16.519,23.263c0.262-0.257,2.773-2.347,5.718-0.082"/>
	<path class="st0" d="M2.18,37.57c0-8.137-1.68-15.432,9.398-14.72"/>
	<path class="st0" d="M37.066,37.408c0-8.137,1.68-15.432-9.398-14.72"/>
	<polyline class="st0" points="9.418,11.582 7.519,13.624 7.293,13.624 4.893,11.917 4.655,12.094 3.018,13.854 2.792,13.854
		0.392,12.147 "/>
	<path d="M11.753,13.587l-0.036-0.046c-0.238,0.109-0.601,0.374-0.694,0.3c-0.663-0.526-1.27-1.121-1.896-1.694
		c0.062-0.086,0.124-0.173,0.186-0.259C10.126,12.454,10.94,13.021,11.753,13.587z"/>
	<polyline class="st0" points="18.153,11.582 16.254,13.624 16.028,13.624 13.628,11.917 13.389,12.094 11.753,13.854 11.527,13.854
		9.127,12.147 "/>
	<polyline class="st0" points="26.596,11.355 24.698,13.397 24.471,13.397 22.072,11.69 21.833,11.867 20.197,13.627 19.971,13.627
		17.571,11.92 "/>
	<path d="M28.932,13.36l-0.036-0.046c-0.238,0.109-0.601,0.374-0.694,0.3c-0.663-0.526-1.27-1.121-1.896-1.694
		c0.062-0.086,0.124-0.173,0.186-0.259C27.305,12.227,28.118,12.794,28.932,13.36z"/>
	<polyline class="st0" points="35.331,11.355 33.433,13.397 33.206,13.397 30.806,11.69 30.568,11.867 28.932,13.627 28.705,13.627
		26.306,11.92 "/>
	<polyline class="st0" points="9.709,15.196 7.81,17.238 7.584,17.238 5.184,15.531 4.946,15.709 3.309,17.468 3.083,17.468
		0.683,15.761 "/>
	<polyline class="st0" points="18.444,15.196 16.545,17.238 16.319,17.238 13.919,15.531 13.68,15.709 12.044,17.468 11.818,17.468
		9.418,15.761 "/>
	<polyline class="st0" points="26.887,14.969 24.989,17.011 24.762,17.011 22.363,15.304 22.124,15.482 20.488,17.241 20.261,17.241
		17.862,15.534 "/>
	<polyline class="st0" points="35.622,14.969 33.724,17.011 33.497,17.011 31.097,15.304 30.859,15.482 29.223,17.241 28.996,17.241
		26.596,15.534 "/>
	<polyline class="st0" points="10.446,19.474 8.547,21.515 8.321,21.515 5.921,19.808 5.683,19.986 4.046,21.746 3.82,21.746
		1.42,20.039 "/>
	<polyline class="st0" points="19.181,19.474 17.282,21.515 17.056,21.515 14.656,19.808 14.418,19.986 12.781,21.746 12.555,21.746
		10.155,20.039 "/>
	<polyline class="st0" points="27.625,19.246 25.726,21.288 25.5,21.288 23.1,19.581 22.862,19.759 21.225,21.519 20.999,21.519
		18.599,19.812 "/>
	<polyline class="st0" points="36.36,19.246 34.461,21.288 34.235,21.288 31.835,19.581 31.597,19.759 29.96,21.519 29.734,21.519
		27.334,19.812 "/>
</svg>
